<svg width="24" height="24" viewBox="0 0 24 24" fill="none" xmlns="http://www.w3.org/2000/svg">
<path fill-rule="evenodd" clip-rule="evenodd" d="M12.0011 0C8.74209 0 8.33309 0.01425 7.05307 0.0725C5.77556 0.131 4.90355 0.33325 4.14054 0.63C3.35128 0.9365 2.68178 1.3465 2.01477 2.01375C1.34726 2.68075 0.93726 3.35025 0.629757 4.13925C0.332253 4.9025 0.129751 5.77475 0.0722508 7.05175C0.0150002 8.33175 0 8.741 0 12C0 15.259 0.0145002 15.6668 0.0725008 16.9468C0.131251 18.2243 0.333503 19.0963 0.630007 19.8593C0.93676 20.6485 1.34676 21.318 2.01402 21.985C2.68078 22.6525 3.35028 23.0635 4.13904 23.37C4.90255 23.6667 5.77481 23.869 7.05207 23.9275C8.33209 23.9858 8.74084 24 11.9996 24C15.2589 24 15.6667 23.9858 16.9467 23.9275C18.2242 23.869 19.0972 23.6667 19.8607 23.37C20.6497 23.0635 21.3182 22.6525 21.985 21.985C22.6525 21.318 23.0625 20.6485 23.37 19.8595C23.665 19.0963 23.8675 18.224 23.9275 16.947C23.985 15.667 24 15.259 24 12C24 8.741 23.985 8.332 23.9275 7.052C23.8675 5.7745 23.665 4.9025 23.37 4.1395C23.0625 3.35025 22.6525 2.68075 21.985 2.01375C21.3175 1.34625 20.65 0.93625 19.86 0.63C19.0949 0.33325 18.2224 0.131 16.9449 0.0725C15.6649 0.01425 15.2574 0 11.9974 0H12.0011ZM10.9247 2.16249C11.2442 2.16199 11.6007 2.16249 12.0012 2.16249C15.2052 2.16249 15.585 2.17399 16.8502 2.23149C18.0202 2.28499 18.6552 2.48049 19.0783 2.64474C19.6383 2.86224 20.0375 3.12224 20.4573 3.54224C20.8773 3.96224 21.1373 4.36224 21.3553 4.92224C21.5195 5.34474 21.7153 5.97974 21.7685 7.14974C21.826 8.41474 21.8385 8.79474 21.8385 11.9972C21.8385 15.1997 21.826 15.5797 21.7685 16.8447C21.715 18.0147 21.5195 18.6497 21.3553 19.0722C21.1378 19.6322 20.8773 20.031 20.4573 20.4507C20.0373 20.8707 19.6385 21.1307 19.0783 21.3482C18.6557 21.5132 18.0202 21.7082 16.8502 21.7617C15.5852 21.8192 15.2052 21.8317 12.0012 21.8317C8.79689 21.8317 8.41714 21.8192 7.15213 21.7617C5.98211 21.7077 5.34711 21.5122 4.92385 21.348C4.36385 21.1305 3.96384 20.8705 3.54384 20.4505C3.12383 20.0305 2.86383 19.6315 2.64583 19.0712C2.48158 18.6487 2.28583 18.0137 2.23257 16.8437C2.17507 15.5787 2.16357 15.1987 2.16357 11.9942C2.16357 8.78974 2.17507 8.41174 2.23257 7.14674C2.28608 5.97674 2.48158 5.34174 2.64583 4.91874C2.86333 4.35874 3.12383 3.95874 3.54384 3.53874C3.96384 3.11874 4.36385 2.85874 4.92385 2.64074C5.34686 2.47574 5.98211 2.28074 7.15213 2.22699C8.25914 2.17699 8.68814 2.16199 10.9247 2.15949V2.16249ZM18.4067 4.15509C17.6117 4.15509 16.9667 4.79934 16.9667 5.59459C16.9667 6.38959 17.6117 7.03459 18.4067 7.03459C19.2018 7.03459 19.8468 6.38959 19.8468 5.59459C19.8468 4.79959 19.2018 4.15509 18.4067 4.15509ZM12.0011 5.83731C8.59778 5.83731 5.8385 8.59656 5.8385 11.9998C5.8385 15.4031 8.59778 18.1611 12.0011 18.1611C15.4044 18.1611 18.1626 15.4031 18.1626 11.9998C18.1626 8.59656 15.4044 5.83731 12.0011 5.83731ZM12.0012 8.00013C14.2102 8.00013 16.0012 9.79088 16.0012 12.0001C16.0012 14.2091 14.2102 16.0001 12.0012 16.0001C9.79193 16.0001 8.00116 14.2091 8.00116 12.0001C8.00116 9.79088 9.79193 8.00013 12.0012 8.00013Z" fill="url(#paint0_linear_150_2500)"/>
<defs>
<linearGradient id="paint0_linear_150_2500" x1="24" y1="0" x2="0.000251769" y2="24" gradientUnits="userSpaceOnUse">
<stop stop-color="#FEDA75"/>
<stop offset="0.333626" stop-color="#FA7E1E"/>
<stop offset="0.581516" stop-color="#D62976"/>
<stop offset="0.806552" stop-color="#962FBF"/>
<stop offset="1" stop-color="#4F5BD5"/>
</linearGradient>
</defs>
</svg>
