<svg width="30" height="30" viewBox="0 0 30 30" fill="none" xmlns="http://www.w3.org/2000/svg">
<path fill-rule="evenodd" clip-rule="evenodd" d="M2 12C2 6.47715 6.47715 2 12 2C17.5228 2 22 6.47715 22 12C22 14.7673 20.8773 17.2705 19.06 19.0821C17.2502 20.8864 14.7561 22 12 22C6.47715 22 2 17.5228 2 12ZM12 0C5.37258 0 0 5.37258 0 12C0 18.6274 5.37258 24 12 24C14.9533 24 17.6587 22.9321 19.7488 21.163L28.2929 29.7071L29.7071 28.2929L21.163 19.7488C22.9321 17.6587 24 14.9533 24 12C24 5.37258 18.6274 0 12 0Z" fill="#BFBFBF"/>
</svg>
