<svg width="95" height="23" viewBox="0 0 95 23" fill="none" xmlns="http://www.w3.org/2000/svg">
<path d="M17.0162 15.312C17.0162 19.7707 13.7736 22 7.28822 22H0.824219V0.400024H8.12022C10.4029 0.400024 12.2589 0.858691 13.6882 1.77602C15.1389 2.67202 15.8642 4.15469 15.8642 6.22402C15.8642 7.82402 15.0856 9.14669 13.5282 10.192C15.8536 11.1734 17.0162 12.88 17.0162 15.312ZM10.5842 6.70402C10.5842 5.14669 9.58155 4.36802 7.57622 4.36802H6.26422V9.23202H8.98422C10.0509 8.65602 10.5842 7.81336 10.5842 6.70402ZM11.4802 15.504C11.4802 13.8614 10.4882 13.04 8.50422 13.04H6.26422V18.064H7.76822C9.02689 18.064 9.95489 17.872 10.5522 17.488C11.1709 17.104 11.4802 16.4427 11.4802 15.504Z" fill="#364B76"/>
<path d="M31.7737 13.52L31.6777 15.792L23.3897 16.144C23.6031 17.0614 23.9551 17.6694 24.4457 17.968C24.9364 18.2667 25.5871 18.4054 26.3977 18.384C28.0191 18.384 29.2991 18.1387 30.2377 17.648L30.7177 17.392V21.584C29.5871 21.9894 28.1044 22.192 26.2697 22.192C23.9871 22.192 22.1417 21.68 20.7337 20.656C19.1977 19.504 18.4297 17.4347 18.4297 14.448C18.4297 11.9307 19.0377 10.0107 20.2537 8.68802C21.4911 7.34402 23.1551 6.67202 25.2457 6.67202C29.5977 6.67202 31.7737 8.95469 31.7737 13.52ZM23.3577 12.912L27.1977 12.72C27.1977 11.184 26.6004 10.416 25.4057 10.416C24.1471 10.416 23.4644 11.248 23.3577 12.912Z" fill="#364B76"/>
<path d="M32.722 10.544L34.034 6.86402H46.93L45.618 10.544H42.034V22H37.138V10.544H32.722Z" fill="#364B76"/>
<path d="M67.1252 0.400024L58.9652 9.93602L66.9332 21.36L61.3332 22.448L55.6692 13.744L54.3892 15.28V22H48.9492V0.400024H54.3892V8.88002L61.0132 0.400024H67.1252Z" fill="#364B76"/>
<path d="M67.7535 21.424L67.1455 21.2L68.1695 17.2C69.3001 18.032 70.5481 18.448 71.9135 18.448C72.5535 18.448 73.1295 18.256 73.6415 17.872C74.1535 17.4667 74.5268 16.88 74.7615 16.112H68.4575L69.1935 12.816H74.7615C74.3135 11.2587 73.2895 10.48 71.6895 10.48C70.1535 10.48 68.9481 10.736 68.0735 11.248L67.5935 11.504V7.31202C68.6815 6.88536 70.0895 6.67202 71.8175 6.67202C74.1215 6.67202 76.0308 7.30136 77.5455 8.56002C79.0601 9.81869 79.8175 11.7707 79.8175 14.416C79.8175 17.1254 79.0815 19.0987 77.6095 20.336C76.1588 21.5734 74.2921 22.192 72.0095 22.192C70.3455 22.192 68.9268 21.936 67.7535 21.424Z" fill="#364B76"/>
<path d="M79.9407 10.544L81.2527 6.86402H94.1487L92.8367 10.544H89.2527V22H84.3567V10.544H79.9407Z" fill="#364B76"/>
</svg>
