<svg width="84" height="21" viewBox="0 0 84 21" fill="none" xmlns="http://www.w3.org/2000/svg">
<g opacity="0.8">
<path d="M0.00805664 8.98797V2.71197C0.912057 2.67997 1.62006 2.66397 2.13206 2.66397C2.89206 2.66397 3.45606 2.80397 3.82406 3.08397C4.20006 3.35597 4.38806 3.73597 4.38806 4.22397C4.38806 4.58397 4.28406 4.89597 4.07606 5.15997C3.86806 5.42397 3.58406 5.60397 3.22406 5.69997V5.71197C4.15206 5.84797 4.61606 6.33197 4.61606 7.16397C4.61606 7.77197 4.38806 8.23597 3.93206 8.55597C3.47606 8.87597 2.85606 9.03597 2.07206 9.03597C1.17606 9.03597 0.488057 9.01997 0.00805664 8.98797ZM2.20406 6.26397H1.02806V8.02797C1.25206 8.05997 1.62406 8.07597 2.14406 8.07597C3.11206 8.07597 3.59606 7.75997 3.59606 7.12797C3.59606 6.55197 3.13206 6.26397 2.20406 6.26397ZM2.12006 3.62397C1.84806 3.62397 1.48406 3.63597 1.02806 3.65997V5.36397H2.18006C2.52406 5.36397 2.80806 5.28397 3.03206 5.12397C3.25606 4.96397 3.36806 4.75197 3.36806 4.48797C3.36806 3.91197 2.95206 3.62397 2.12006 3.62397Z" fill="#364B76"/>
<path d="M10.717 8.99997H6.54103V2.69997H10.621V3.65997H7.56102V5.33997H10.321V6.29997H7.56102V8.03997H10.717V8.99997Z" fill="#364B76"/>
<path d="M14.0684 3.65997H11.7284V2.69997H17.4404V3.65997H15.0884V8.99997H14.0684V3.65997Z" fill="#364B76"/>
<path d="M22.9627 8.99997H18.7866V2.69997H22.8666V3.65997H19.8067V5.33997H22.5667V6.29997H19.8067V8.03997H22.9627V8.99997Z" fill="#364B76"/>
<path d="M25.906 6.86397V8.99997H24.886V2.69997C25.166 2.69997 25.47 2.69597 25.798 2.68797C26.126 2.67997 26.45 2.67597 26.77 2.67597C27.666 2.67597 28.326 2.86397 28.75 3.23997C29.174 3.60797 29.386 4.11997 29.386 4.77597C29.386 5.40797 29.162 5.91997 28.714 6.31197C28.274 6.70397 27.662 6.89997 26.878 6.89997C26.558 6.89997 26.234 6.88797 25.906 6.86397ZM26.866 3.63597C26.69 3.63597 26.37 3.64397 25.906 3.65997V5.89197C26.282 5.92397 26.594 5.93997 26.842 5.93997C27.298 5.93997 27.654 5.83597 27.91 5.62797C28.174 5.41997 28.306 5.13597 28.306 4.77597C28.306 4.01597 27.826 3.63597 26.866 3.63597Z" fill="#364B76"/>
<path d="M35.9503 4.31997L32.0143 8.99997H31.1143V2.69997H32.1343V7.37997L36.0703 2.69997H36.9703V8.99997H35.9503V4.31997Z" fill="#364B76"/>
<path d="M44.8933 8.99997H43.8733V6.26397H40.2493V8.99997H39.2293V2.69997H40.2493V5.30397H43.8733V2.69997H44.8933V8.99997Z" fill="#364B76"/>
<path d="M47.3131 8.99997H46.2811L49.2331 2.66397H50.1211L53.0731 8.99997H51.9811L51.2131 7.31997H48.0811L47.3131 8.99997ZM50.7811 6.35997L49.6531 3.88797L48.5131 6.35997H50.7811Z" fill="#364B76"/>
<path d="M55.4832 6.86397V8.99997H54.4632V2.69997C54.7432 2.69997 55.0472 2.69597 55.3752 2.68797C55.7032 2.67997 56.0272 2.67597 56.3472 2.67597C57.2432 2.67597 57.9032 2.86397 58.3272 3.23997C58.7512 3.60797 58.9632 4.11997 58.9632 4.77597C58.9632 5.40797 58.7392 5.91997 58.2912 6.31197C57.8512 6.70397 57.2392 6.89997 56.4552 6.89997C56.1352 6.89997 55.8112 6.88797 55.4832 6.86397ZM56.4432 3.63597C56.2672 3.63597 55.9472 3.64397 55.4832 3.65997V5.89197C55.8592 5.92397 56.1712 5.93997 56.4192 5.93997C56.8752 5.93997 57.2312 5.83597 57.4872 5.62797C57.7512 5.41997 57.8832 5.13597 57.8832 4.77597C57.8832 4.01597 57.4032 3.63597 56.4432 3.63597Z" fill="#364B76"/>
<path d="M66.3555 8.99997H65.3355V6.26397H61.7115V8.99997H60.6915V2.69997H61.7115V5.30397H65.3355V2.69997H66.3555V8.99997Z" fill="#364B76"/>
<path d="M75.0633 8.99997H74.0433V2.69997H75.0633V8.99997ZM70.3953 5.81997C70.1953 5.81997 69.9393 5.83197 69.6273 5.85597V8.03997C70.0593 8.05597 70.3073 8.06397 70.3713 8.06397C71.4193 8.06397 71.9433 7.67597 71.9433 6.89997C71.9433 6.17997 71.4273 5.81997 70.3953 5.81997ZM68.6073 2.69997H69.6273V4.89597C69.9633 4.87197 70.2473 4.85997 70.4793 4.85997C71.3113 4.85997 71.9433 5.03597 72.3753 5.38797C72.8073 5.73997 73.0233 6.23597 73.0233 6.87597C73.0233 7.53997 72.7753 8.06397 72.2793 8.44797C71.7913 8.83197 71.1153 9.02397 70.2513 9.02397C69.8993 9.02397 69.5993 9.01997 69.3513 9.01197C69.1033 9.00397 68.8553 8.99997 68.6073 8.99997V2.69997Z" fill="#364B76"/>
<path d="M82.1559 4.31997L78.2199 8.99997H77.3199V2.69997H78.3399V7.37997L82.2759 2.69997H83.1759V8.99997H82.1559V4.31997ZM78.4119 0.839966H79.3119C79.3119 1.35997 79.6199 1.61997 80.2359 1.61997C80.8199 1.61997 81.1119 1.35997 81.1119 0.839966H82.0119C82.0119 1.31197 81.8519 1.67997 81.5319 1.94397C81.2199 2.20797 80.7879 2.33997 80.2359 2.33997C79.6439 2.33997 79.1919 2.21197 78.8799 1.95597C78.5679 1.69197 78.4119 1.31997 78.4119 0.839966Z" fill="#364B76"/>
<path d="M5.54006 19H0.00805664V12.7H1.02806V18.04H4.53206V12.7H5.55206V18.04H6.50006V20.14H5.54006V19Z" fill="#364B76"/>
<path d="M12.2053 19H8.02931V12.7H12.1093V13.66H9.04931V15.34H11.8093V16.3H9.04931V18.04H12.2053V19Z" fill="#364B76"/>
<path d="M19.7927 19H18.7727V16.264H15.1487V19H14.1287V12.7H15.1487V15.304H18.7727V12.7H19.7927V19Z" fill="#364B76"/>
<path d="M23.4725 13.66H21.1325V12.7H26.8445V13.66H24.4925V19H23.4725V13.66Z" fill="#364B76"/>
<path d="M29.2107 16.864V19H28.1907V12.7C28.4707 12.7 28.7747 12.696 29.1027 12.688C29.4307 12.68 29.7547 12.676 30.0747 12.676C30.9707 12.676 31.6307 12.864 32.0547 13.24C32.4787 13.608 32.6907 14.12 32.6907 14.776C32.6907 15.408 32.4667 15.92 32.0187 16.312C31.5787 16.704 30.9667 16.9 30.1827 16.9C29.8627 16.9 29.5387 16.888 29.2107 16.864ZM30.1707 13.636C29.9947 13.636 29.6747 13.644 29.2107 13.66V15.892C29.5867 15.924 29.8987 15.94 30.1467 15.94C30.6027 15.94 30.9587 15.836 31.2147 15.628C31.4787 15.42 31.6107 15.136 31.6107 14.776C31.6107 14.016 31.1307 13.636 30.1707 13.636Z" fill="#364B76"/>
<path d="M37.3543 18.988V12.712C38.2583 12.68 38.9663 12.664 39.4783 12.664C40.2383 12.664 40.8023 12.804 41.1703 13.084C41.5463 13.356 41.7343 13.736 41.7343 14.224C41.7343 14.584 41.6303 14.896 41.4223 15.16C41.2143 15.424 40.9303 15.604 40.5703 15.7V15.712C41.4983 15.848 41.9623 16.332 41.9623 17.164C41.9623 17.772 41.7343 18.236 41.2783 18.556C40.8223 18.876 40.2023 19.036 39.4183 19.036C38.5223 19.036 37.8343 19.02 37.3543 18.988ZM39.5503 16.264H38.3743V18.028C38.5983 18.06 38.9703 18.076 39.4903 18.076C40.4583 18.076 40.9423 17.76 40.9423 17.128C40.9423 16.552 40.4783 16.264 39.5503 16.264ZM39.4663 13.624C39.1943 13.624 38.8303 13.636 38.3743 13.66V15.364H39.5263C39.8703 15.364 40.1543 15.284 40.3783 15.124C40.6023 14.964 40.7143 14.752 40.7143 14.488C40.7143 13.912 40.2983 13.624 39.4663 13.624Z" fill="#364B76"/>
<path d="M49.6985 12.568H51.0305L48.0785 15.508L51.1865 18.868H49.7945L46.8305 15.58L49.6985 12.568ZM46.7465 18.868H45.7265V12.568H46.7465V18.868Z" fill="#364B76"/>
<path d="M64.9421 18.94V12.664C65.8461 12.632 66.5541 12.616 67.0661 12.616C67.8261 12.616 68.3901 12.756 68.7581 13.036C69.1341 13.308 69.3221 13.688 69.3221 14.176C69.3221 14.536 69.2181 14.848 69.0101 15.112C68.8021 15.376 68.5181 15.556 68.1581 15.652V15.664C69.0861 15.8 69.5501 16.284 69.5501 17.116C69.5501 17.724 69.3221 18.188 68.8661 18.508C68.4101 18.828 67.7901 18.988 67.0061 18.988C66.1101 18.988 65.4221 18.972 64.9421 18.94ZM67.1381 16.216H65.9621V17.98C66.1861 18.012 66.5581 18.028 67.0781 18.028C68.0461 18.028 68.5301 17.712 68.5301 17.08C68.5301 16.504 68.0661 16.216 67.1381 16.216ZM67.0541 13.576C66.7821 13.576 66.4181 13.588 65.9621 13.612V15.316H67.1141C67.4581 15.316 67.7421 15.236 67.9661 15.076C68.1901 14.916 68.3021 14.704 68.3021 14.44C68.3021 13.864 67.8861 13.576 67.0541 13.576Z" fill="#364B76"/>
<path d="M63.6993 18.868H59.5233V12.568H63.6033V13.528H60.5433V15.208H63.3033V16.168H60.5433V17.908H63.6993V18.868Z" fill="#364B76"/>
<path d="M57.028 14.188L53.0919 18.868H52.1919V12.568H53.2119V17.248L57.1479 12.568H58.048V18.868H57.028V14.188Z" fill="#364B76"/>
<path d="M75.0633 18.892H70.8873V12.592H74.9673V13.552H71.9073V15.232H74.6673V16.192H71.9073V17.932H75.0633V18.892Z" fill="#364B76"/>
</g>
</svg>
