<svg width="25" height="24" viewBox="0 0 25 24" fill="none" xmlns="http://www.w3.org/2000/svg">
<path fill-rule="evenodd" clip-rule="evenodd" d="M13.8861 4.63582C14.071 4.53971 14.2656 4.45234 14.4694 4.3739C16.9647 3.41345 19.5171 4.99629 20.4272 7.36079C21.7721 10.8548 19.3051 14.989 17.351 18.2634C17.1237 18.6443 16.9033 19.0136 16.6967 19.369C16.4517 19.7902 15.945 19.9853 15.4808 19.837C15.0892 19.7119 14.6781 19.5857 14.254 19.4555C10.6088 18.3362 6.00657 16.9231 4.66168 13.4291C3.75157 11.0646 4.58404 8.17887 7.07929 7.21842C7.28308 7.13999 7.48605 7.07433 7.68767 7.02166C7.68829 7.0215 7.68891 7.02133 7.68954 7.02117C9.0017 6.67889 10.2569 6.88664 11.3116 7.69966C11.3581 7.73547 11.4041 7.77246 11.4498 7.81062C11.513 7.86342 11.6124 7.82514 11.6239 7.74361C11.6322 7.68468 11.6416 7.62635 11.652 7.56864C11.8894 6.25827 12.6814 5.26255 13.8844 4.63671C13.885 4.63641 13.8855 4.63612 13.8861 4.63582ZM9.66013 2.90142C10.581 1.89509 11.7466 1.13585 13.0325 0.640887C18.0959 -1.30805 22.6667 2.04352 24.1603 5.92391C25.4685 9.32282 24.5671 12.6788 23.5593 15.0911C22.7453 17.0395 21.581 18.9865 20.7122 20.4395C20.5069 20.7827 20.3182 21.0983 20.1545 21.3799C18.9661 23.4232 16.5153 24.3666 14.2636 23.6473C13.9533 23.5482 13.6017 23.4406 13.2193 23.3235C11.6005 22.8281 9.43132 22.1642 7.52093 21.2644C5.15581 20.1504 2.23694 18.2649 0.928667 14.866C-0.564929 10.9856 0.579059 5.43435 5.64242 3.48541C6.92833 2.99045 8.30223 2.7722 9.66013 2.90142Z" fill="white"/>
</svg>
