<svg width="56" height="64" viewBox="0 0 56 64" fill="none" xmlns="http://www.w3.org/2000/svg">
<path d="M7.27996 49.1998L29.68 31.2798C31.76 29.6798 32.8 28.0264 32.8 26.3198C32.8 25.1998 32.4266 24.2664 31.68 23.5198C30.9866 22.7198 29.9733 22.3198 28.64 22.3198C27.0933 22.3198 25.8133 22.9331 24.8 24.1598C23.7866 25.3864 23.2266 27.0398 23.12 29.1198L4.95996 27.0398C5.65329 20.1064 8.39996 14.8264 13.2 11.1998C18 7.5731 23.68 5.75977 30.24 5.75977C33.1733 5.75977 35.9466 6.10643 38.56 6.79977C41.1733 7.4931 43.5733 8.55977 45.76 9.99977C48 11.3864 49.76 13.3064 51.04 15.7598C52.3733 18.2131 53.04 21.0398 53.04 24.2398C53.04 27.1731 52.4533 29.8398 51.28 32.2398C50.16 34.5864 48.9066 36.4264 47.52 37.7598C46.1333 39.0931 44.2933 40.5598 42 42.1598L33.68 48.0798H53.2V63.9998H7.27996V49.1998Z" fill="#F3FDFF"/>
</svg>
